<?xml version="1.0" encoding="UTF-8"?>
<svg id="MRU-StackedLogo" xmlns="http://www.w3.org/2000/svg" viewBox="0 0 197.655 72.341">
  <g id="Logo">
    <g id="Wordmark">
      <g>
        <path d="M71.632,58.944c-1.024-.938-1.535-2.309-1.535-4.113v-3.923c0-.995-.04-1.691-.117-2.088-.079-.398-.245-.676-.502-.832-.255-.156-.717-.298-1.385-.427v-.681c.454,0,.832.007,1.13.021l2.068.022,2.089-.022c.341-.014.717-.021,1.13-.021v.681c-.668.129-1.13.271-1.385.427-.256.156-.424.433-.502.832-.079.397-.117,1.094-.117,2.088v3.923c0,1.435.355,2.523,1.066,3.261.71.739,1.726,1.109,3.048,1.109,1.364,0,2.391-.398,3.08-1.194s1.034-1.997,1.034-3.602c0-1.535-.008-2.693-.022-3.475-.014-.853-.061-1.471-.138-1.855-.079-.384-.267-.696-.565-.938-.299-.241-.789-.433-1.471-.576v-.681c.441,0,.789.007,1.045.021l1.727.022,1.535-.022c.199-.014.469-.021.81-.021v.681c-.569.157-.984.374-1.247.651-.263.276-.43.646-.501,1.108-.072.462-.107,1.154-.107,2.078v3.198c0,1.904-.48,3.339-1.438,4.305-.96.967-2.391,1.45-4.296,1.45-1.932,0-3.41-.468-4.433-1.407Z" style="fill: #003a5f;"/>
        <path d="M92.984,55.289c-1.932-2.082-3.581-3.827-4.945-5.234-.014.767-.022,2.04-.022,3.816,0,1.62.046,2.75.139,3.389.092.64.302,1.094.628,1.364.327.271.896.505,1.706.704v.682c-.469,0-.832-.008-1.087-.022l-1.876-.021-1.535.021c-.213.014-.504.022-.873.022v-.682c.61-.185,1.037-.415,1.278-.693s.401-.747.48-1.407.117-1.78.117-3.357c0-1.99-.043-3.361-.128-4.114s-.273-1.265-.565-1.535-.842-.498-1.652-.682v-.682l1.705.022c.981.028,1.727.043,2.239.043,1.222,1.45,2.629,3.041,4.22,4.775s3.077,3.319,4.456,4.754c.013-.782.021-1.926.021-3.432,0-1.621-.046-2.75-.138-3.389-.093-.64-.299-1.095-.619-1.364s-.891-.504-1.716-.704v-.681c.483,0,.853.007,1.108.021l1.855.022,1.557-.022c.213-.014.504-.021.873-.021v.681c-.611.185-1.037.416-1.278.694-.242.276-.402.746-.48,1.406-.079.661-.117,1.781-.117,3.358,0,2.373.035,4.853.107,7.439l-.725.063c-1.223-1.406-2.8-3.151-4.733-5.233Z" style="fill: #003a5f;"/>
        <path d="M102.771,58.902c.255-.156.422-.433.501-.831.079-.398.117-1.095.117-2.089v-5.074c0-.995-.039-1.691-.117-2.088-.079-.398-.245-.676-.501-.832-.256-.156-.718-.298-1.386-.427v-.681c.413,0,.789.007,1.13.021l2.069.022,2.088-.022c.342-.014.718-.021,1.13-.021v.681c-.654.129-1.112.271-1.375.427s-.433.433-.511.832c-.079.397-.117,1.094-.117,2.088v5.074c0,.995.039,1.691.117,2.089.078.397.248.675.511.831.263.157.721.299,1.375.427v.682c-.412,0-.788-.008-1.13-.022l-2.088-.021-2.069.021c-.341.014-.717.022-1.13.022v-.682c.668-.128,1.13-.27,1.386-.427Z" style="fill: #003a5f;"/>
        <path d="M113.188,55.192c-.654-1.734-1.201-3.147-1.642-4.242l-.298-.681c-.285-.711-.533-1.241-.747-1.589-.213-.348-.436-.604-.671-.767-.235-.163-.565-.28-.992-.352v-.681c.469,0,.838.007,1.109.021l2.025.022,2.11-.022c.284-.014.661-.021,1.13-.021v.681c-.625.086-1.063.214-1.311.384-.249.17-.374.433-.374.788,0,.185.046.437.139.757.092.32.217.729.373,1.226.824,2.458,1.677,4.832,2.558,7.12l1.557-4.711c.384-1.236.658-2.135.82-2.697.164-.561.245-1.026.245-1.396,0-.413-.116-.729-.351-.949-.235-.22-.629-.394-1.184-.522v-.681c.526,0,.917.007,1.172.021l1.514.022,1.556-.022c.2-.014.498-.021.896-.021v.681c-.427.072-.779.218-1.055.437-.277.22-.54.548-.789.981s-.543,1.048-.885,1.843c-.37.91-.881,2.257-1.535,4.04-.654,1.784-1.3,3.578-1.94,5.383h-1.557c-.596-1.634-1.222-3.319-1.875-5.053Z" style="fill: #003a5f;"/>
        <path d="M127.231,59.968l-2.26.021-1.109.022v-.682c.668-.128,1.134-.27,1.397-.427.263-.156.43-.433.501-.831.071-.398.107-1.095.107-2.089v-5.074c0-.995-.036-1.691-.107-2.088-.071-.398-.238-.676-.501-.832s-.729-.298-1.397-.427v-.681l1.109.021,2.26.022c1.464,0,3.837-.036,7.12-.107-.014.625-.035,1.286-.063,1.982-.029.342-.058.69-.085,1.045h-.704c-.156-.54-.316-.949-.48-1.225-.164-.277-.395-.484-.693-.619-.298-.134-.711-.217-1.237-.245-.412-.014-1.321-.021-2.728-.021-.057,1.009-.085,2.096-.085,3.261v1.727c.767.014,1.435-.007,2.003-.063.427-.043.761-.114,1.002-.214.241-.099.433-.27.575-.511.142-.242.263-.597.362-1.066h.619c0,1.706.014,3.177.043,4.413l-.597.063c-.199-.61-.415-1.03-.65-1.258s-.593-.369-1.077-.427c-.625-.071-1.385-.092-2.28-.063v1.684c0,1.122.049,1.95.149,2.483s.273.892.522,1.077.636.277,1.162.277c.555,0,1.08-.043,1.577-.129.427-.071.796-.191,1.109-.362.312-.17.618-.44.916-.81.299-.369.597-.888.896-1.556l.703.17c-.17,1.123-.433,2.338-.789,3.645-3.354-.071-5.784-.106-7.29-.106Z" style="fill: #003a5f;"/>
        <path d="M146.942,59.627c-.682-.369-1.364-.991-2.047-1.865s-1.407-2.078-2.174-3.613c-.128-.014-.306-.022-.533-.022-.441-.014-.889-.014-1.343,0v1.855c0,.995.043,1.691.128,2.089.085.397.27.675.555.831.284.157.788.299,1.513.427v.682c-.597,0-1.065-.008-1.407-.022l-2.003-.021-2.069.021c-.298.014-.675.022-1.13.022v-.682c.668-.128,1.134-.27,1.397-.427.263-.156.43-.433.501-.831.071-.398.107-1.095.107-2.089v-5.074c0-.995-.036-1.691-.107-2.088-.071-.398-.238-.676-.501-.832s-.729-.298-1.397-.427v-.681c.838,0,2.033-.014,3.582-.043l1.62-.044c1.848,0,3.244.281,4.189.842.945.562,1.417,1.375,1.417,2.441,0,.668-.185,1.268-.555,1.801-.369.534-.952.985-1.748,1.354,1.122,2.089,2.185,3.602,3.187,4.54,1.002.939,2.057,1.429,3.165,1.471l.086.66c-.739.185-1.471.277-2.196.277-.81,0-1.556-.185-2.238-.555ZM142.913,52.944c.569-.277.992-.643,1.268-1.098.277-.455.416-.96.416-1.514,0-.625-.167-1.148-.502-1.567s-.782-.725-1.343-.916c-.561-.192-1.169-.259-1.822-.202-.014.454-.028.902-.043,1.343-.014.498-.028,1.165-.043,2.003v2.431c.81-.043,1.499-.202,2.068-.48Z" style="fill: #003a5f;"/>
        <path d="M154.041,60.16c-.668-.114-1.243-.263-1.727-.449-.099-1.264-.149-2.458-.149-3.581l.66-.022c.128.668.365,1.251.714,1.748.348.498.756.885,1.225,1.162s.966.416,1.492.416c.569,0,1.037-.164,1.407-.491.369-.326.555-.746.555-1.258,0-.412-.114-.8-.342-1.162-.227-.361-.512-.693-.853-.991s-.796-.66-1.364-1.087c-.654-.525-1.193-.98-1.62-1.364-.426-.383-.785-.828-1.077-1.332s-.436-1.062-.436-1.673c0-.682.187-1.29.565-1.822.376-.534.902-.949,1.577-1.247.675-.299,1.432-.448,2.27-.448.497,0,1.009.046,1.535.138.525.093,1.045.224,1.556.395-.028.484-.063.995-.106,1.535s-.099,1.059-.17,1.556l-.682-.021c-.114-.853-.402-1.517-.864-1.993-.462-.477-1.02-.714-1.673-.714-.555,0-1.002.152-1.343.458-.342.306-.512.7-.512,1.183,0,.37.103.714.309,1.034.205.32.468.611.788.874s.757.593,1.312.991c.71.498,1.286.939,1.726,1.322.441.384.814.846,1.119,1.385.306.54.458,1.152.458,1.834,0,.711-.185,1.357-.554,1.94-.37.583-.892,1.037-1.567,1.364-.676.326-1.468.49-2.377.49-.569,0-1.187-.057-1.855-.17Z" style="fill: #003a5f;"/>
        <path d="M163.209,58.902c.255-.156.422-.433.501-.831.079-.398.117-1.095.117-2.089v-5.074c0-.995-.039-1.691-.117-2.088-.079-.398-.245-.676-.501-.832-.256-.156-.718-.298-1.386-.427v-.681c.413,0,.789.007,1.13.021l2.069.022,2.088-.022c.342-.014.718-.021,1.13-.021v.681c-.654.129-1.112.271-1.375.427s-.433.433-.511.832c-.079.397-.117,1.094-.117,2.088v5.074c0,.995.039,1.691.117,2.089.078.397.248.675.511.831.263.157.721.299,1.375.427v.682c-.412,0-.788-.008-1.13-.022l-2.088-.021-2.069.021c-.341.014-.717.022-1.13.022v-.682c.668-.128,1.13-.27,1.386-.427Z" style="fill: #003a5f;"/>
        <path d="M181.627,48.755c-.285-.326-.647-.555-1.087-.682-.228-.043-.575-.075-1.045-.096-.469-.022-1.158-.039-2.068-.054-.043,1.421-.064,3.148-.064,5.181v2.878c0,.909.043,1.559.128,1.95.085.392.281.69.587.896.306.205.842.373,1.61.501v.682c-.54,0-.974-.008-1.3-.022l-2.239-.021-2.238.021c-.327.014-.761.022-1.301.022v-.682c.767-.128,1.312-.295,1.631-.501.32-.206.515-.504.586-.896.071-.391.107-1.041.107-1.95v-2.878c0-2.047-.022-3.774-.064-5.181-.909.015-1.598.032-2.068.054-.468.021-.818.053-1.045.096-.454.128-.82.356-1.098.682-.277.327-.508.796-.693,1.407l-.64-.043c.057-1.137.17-2.409.342-3.816l.639.043.64.64c1.223.043,2.956.064,5.202.064,2.274,0,4.007-.022,5.202-.064l.64-.64.66-.043c.17,1.407.284,2.679.342,3.816l-.661.043c-.185-.611-.419-1.08-.703-1.407Z" style="fill: #003a5f;"/>
        <path d="M186.449,50.226s-.885-1.41-1.247-1.801c-.362-.391-.828-.678-1.396-.863v-.682c.455,0,.817.007,1.087.021l1.684.021c.568-.014,1.13-.021,1.684-.021.299-.014.725-.021,1.279-.021v.682c-.398.1-.693.238-.885.416-.192.178-.288.395-.288.65,0,.157.021.35.106.565.67,1.678,2.929,4.956,2.929,4.956,0,0,1.821-2.533,2.553-4.21.191-.437.245-.835.245-1.162,0-.313-.082-.565-.245-.757-.164-.192-.423-.344-.778-.458v-.682c.455,0,.795.007,1.023.021l1.301.021,1.343-.021c.185-.014.455-.021.81-.021v.682c-.355.114-.664.274-.927.48-.263.206-.551.522-.863.949-.313.426-3.907,5.863-3.907,5.863v1.13c0,.924.035,1.577.106,1.961.071.384.266.678.586.885.32.206.863.373,1.631.501v.682c-.526,0-.952-.007-1.279-.021l-2.26-.021-2.238.021c-.341.014-.775.021-1.301.021v-.682c.767-.128,1.311-.295,1.631-.501.32-.206.515-.501.586-.885.071-.384.106-1.038.106-1.961v-.746c-.341-.753-3.078-5.01-3.078-5.01Z" style="fill: #003a5f;"/>
      </g>
      <g>
        <path d="M78.602,42.619c-.682-.369-1.364-.991-2.047-1.865s-1.407-2.078-2.174-3.613c-.128-.014-.306-.022-.533-.022-.44-.014-.888-.014-1.343,0v1.855c0,.995.043,1.691.128,2.089.085.397.27.675.554.831.284.157.789.299,1.514.427v.682c-.597,0-1.065-.008-1.407-.022l-2.004-.021-2.068.021c-.299.014-.675.022-1.13.022v-.682c.668-.128,1.133-.27,1.396-.427.263-.156.43-.433.501-.831.071-.398.106-1.095.106-2.089v-5.074c0-.995-.035-1.691-.106-2.088-.071-.398-.238-.676-.501-.832s-.729-.298-1.396-.427v-.681c.838,0,2.032-.014,3.581-.043l1.62-.044c1.847,0,3.243.281,4.189.842.945.562,1.417,1.375,1.417,2.441,0,.668-.185,1.268-.554,1.801-.37.534-.952.985-1.748,1.354,1.123,2.089,2.185,3.602,3.187,4.54,1.002.939,2.057,1.429,3.166,1.471l.085.66c-.739.185-1.471.277-2.196.277-.81,0-1.556-.185-2.238-.555ZM74.573,35.936c.568-.277.991-.643,1.268-1.098.277-.455.415-.96.415-1.514,0-.625-.167-1.148-.501-1.567-.335-.419-.782-.725-1.343-.916-.562-.192-1.169-.259-1.822-.202-.014.454-.029.902-.043,1.343-.015.498-.029,1.165-.043,2.003v2.431c.81-.043,1.499-.202,2.068-.48Z" style="fill: #003a5f;"/>
        <path d="M85.841,42.416c-1.123-.604-2.004-1.432-2.643-2.483-.639-1.051-.959-2.217-.959-3.496,0-1.264.305-2.426.916-3.485.611-1.059,1.464-1.89,2.558-2.494,1.094-.604,2.324-.906,3.688-.906,1.378,0,2.632.302,3.762.906,1.13.605,2.015,1.435,2.654,2.494.64,1.059.96,2.227.96,3.507,0,1.265-.309,2.423-.927,3.475s-1.471,1.879-2.558,2.483-2.313.907-3.677.907c-1.393,0-2.65-.303-3.773-.907ZM92.013,41.745c.604-.427,1.069-1.041,1.396-1.844.327-.802.49-1.73.49-2.782,0-1.222-.202-2.337-.607-3.347-.405-1.009-.974-1.808-1.705-2.398-.732-.59-1.567-.885-2.505-.885-.782,0-1.475.213-2.078.64-.604.426-1.077,1.041-1.417,1.843-.341.803-.512,1.745-.512,2.825,0,1.194.206,2.296.618,3.304.412,1.01.991,1.809,1.737,2.399s1.588.884,2.526.884c.767,0,1.453-.213,2.057-.639Z" style="fill: #003a5f;"/>
        <path d="M127.927,42.96l-2.068.021c-.299.014-.675.022-1.13.022v-.682c.668-.128,1.133-.27,1.396-.427.263-.156.43-.433.501-.831.071-.398.106-1.095.106-2.089v-5.074c0-.995-.035-1.691-.106-2.088-.071-.398-.238-.676-.501-.832s-.729-.298-1.396-.427v-.681c.455,0,.831.007,1.13.021l2.068.022,2.004-.022c.341-.014.81-.021,1.407-.021v.681c-.725.129-1.229.271-1.514.427s-.469.433-.554.832c-.085.397-.128,1.094-.128,2.088v4.371c0,1.122.049,1.946.149,2.473.099.526.273.885.522,1.077.248.191.629.288,1.14.288.654,0,1.272-.043,1.855-.129.383-.043.728-.149,1.033-.319.306-.171.619-.455.939-.854.32-.397.671-.966,1.055-1.705l.66.192c-.341,1.407-.725,2.672-1.151,3.794-3.567-.085-6.04-.128-7.419-.128Z" style="fill: #003a5f;"/>
        <path d="M99.42,33.218s-.885-1.41-1.247-1.801c-.362-.391-.828-.678-1.396-.863v-.682c.455,0,.817.007,1.087.021l1.684.021c.568-.014,1.13-.021,1.684-.021.299-.014.725-.021,1.279-.021v.682c-.398.1-.693.238-.885.416-.192.178-.288.395-.288.65,0,.157.021.35.106.565.67,1.678,2.929,4.956,2.929,4.956,0,0,1.821-2.533,2.553-4.21.191-.437.245-.835.245-1.162,0-.313-.082-.565-.245-.757-.164-.192-.423-.344-.778-.458v-.682c.455,0,.795.007,1.023.021l1.301.021,1.343-.021c.185-.014.455-.021.81-.021v.682c-.355.114-.664.274-.927.48-.263.206-.551.522-.863.949-.313.426-3.907,5.863-3.907,5.863v1.13c0,.924.035,1.577.106,1.961.071.384.266.678.586.885.32.206.863.373,1.631.501v.682c-.526,0-.952-.007-1.279-.021l-2.26-.021-2.238.021c-.341.014-.775.021-1.301.021v-.682c.767-.128,1.311-.295,1.631-.501.32-.206.515-.501.586-.885.071-.384.106-1.038.106-1.961v-.746c-.341-.753-3.078-5.01-3.078-5.01Z" style="fill: #003a5f;"/>
        <path d="M110.222,41.863c.291-.192.526-.423.704-.693.177-.27.38-.668.607-1.194.469-1.109,1.026-2.483,1.673-4.125.646-1.641,1.736-4.476,2.304-6.082l1.65-.431c1.18,3.738,2.331,6.928,3.454,9.571.369.881.682,1.539.938,1.972.256.434.536.757.842.97.305.213.7.37,1.183.469v.682c-.483,0-.881-.007-1.194-.021l-2.068-.021-2.089.021c-.355.014-.746.021-1.172.021v-.682c.555-.099.949-.231,1.183-.394.234-.163.352-.416.352-.757,0-.199-.05-.483-.149-.853-.1-.37-.291-.973-.576-1.812-.554-.014-1.385-.021-2.494-.021-.952,0-1.663.008-2.132.021-.313.839-.515,1.45-.607,1.833-.093.384-.139.661-.139.831,0,.313.103.558.309.736.206.178.536.317.991.415v.682c-.356,0-.647-.007-.874-.021l-1.492-.021-1.492.021c-.27.014-.561.021-.874.021v-.682c.483-.114.871-.266,1.162-.458ZM115.433,37.588c.938,0,1.641-.007,2.11-.021-.625-1.719-1.279-3.453-1.961-5.202-.824,2.089-1.485,3.823-1.982,5.202.37.014.981.021,1.833.021Z" style="fill: #003a5f;"/>
      </g>
      <g>
        <path d="M90.612,25.415c-1.123-.604-2.004-1.432-2.643-2.483-.639-1.051-.959-2.217-.959-3.496,0-1.264.305-2.426.916-3.485.611-1.059,1.464-1.89,2.558-2.494,1.094-.604,2.324-.906,3.688-.906,1.378,0,2.632.302,3.762.906,1.13.605,2.015,1.435,2.654,2.494.64,1.059.96,2.227.96,3.507,0,1.265-.309,2.423-.927,3.475s-1.471,1.879-2.558,2.483-2.313.907-3.677.907c-1.393,0-2.65-.303-3.773-.907ZM96.783,24.744c.604-.427,1.069-1.041,1.396-1.844.327-.802.49-1.73.49-2.782,0-1.222-.202-2.337-.607-3.347-.405-1.009-.974-1.808-1.705-2.398-.732-.59-1.567-.885-2.505-.885-.782,0-1.475.213-2.078.64-.604.426-1.077,1.041-1.417,1.843-.341.803-.512,1.745-.512,2.825,0,1.194.206,2.296.618,3.304.412,1.01.991,1.809,1.737,2.399s1.588.884,2.526.884c.767,0,1.453-.213,2.057-.639Z" style="fill: #003a5f;"/>
        <path d="M105.643,24.935c-1.023-.938-1.535-2.309-1.535-4.113v-3.923c0-.995-.039-1.691-.117-2.088-.079-.398-.245-.676-.501-.832s-.718-.298-1.386-.427v-.681c.455,0,.832.007,1.13.021l2.068.022,2.089-.022c.341-.014.718-.021,1.13-.021v.681c-.668.129-1.13.271-1.385.427-.256.156-.423.433-.501.832-.079.397-.117,1.094-.117,2.088v3.923c0,1.435.355,2.523,1.066,3.261.71.739,1.726,1.109,3.048,1.109,1.364,0,2.391-.398,3.08-1.194s1.034-1.997,1.034-3.602c0-1.535-.008-2.693-.022-3.475-.014-.853-.061-1.471-.138-1.855-.079-.384-.267-.696-.565-.938-.299-.241-.789-.433-1.471-.576v-.681c.44,0,.789.007,1.045.021l1.726.022,1.535-.022c.199-.014.469-.021.81-.021v.681c-.569.157-.984.374-1.247.651-.263.276-.43.646-.501,1.108-.071.462-.107,1.154-.107,2.078v3.198c0,1.904-.479,3.339-1.439,4.305-.959.967-2.391,1.45-4.296,1.45-1.933,0-3.411-.468-4.434-1.407Z" style="fill: #003a5f;"/>
        <path d="M126.996,21.28c-1.933-2.082-3.582-3.827-4.946-5.234-.014.767-.021,2.04-.021,3.816,0,1.62.046,2.75.139,3.389.092.64.301,1.094.629,1.364.326.271.895.505,1.705.704v.682c-.469,0-.831-.008-1.087-.022l-1.875-.021-1.535.021c-.213.014-.504.022-.874.022v-.682c.611-.185,1.037-.415,1.279-.693.241-.277.401-.747.479-1.407s.117-1.78.117-3.357c0-1.99-.043-3.361-.128-4.114s-.274-1.265-.565-1.535c-.291-.27-.842-.498-1.652-.682v-.682l1.705.022c.981.028,1.727.043,2.238.043,1.222,1.45,2.629,3.041,4.221,4.775s3.077,3.319,4.455,4.754c.014-.782.021-1.926.021-3.432,0-1.621-.046-2.75-.139-3.389s-.298-1.095-.618-1.364-.892-.504-1.716-.704v-.681c.483,0,.853.007,1.109.021l1.854.022,1.557-.022c.213-.014.504-.021.874-.021v.681c-.611.185-1.038.416-1.279.694-.242.276-.402.746-.479,1.406-.079.661-.117,1.781-.117,3.358,0,2.373.035,4.853.106,7.439l-.725.063c-1.222-1.406-2.8-3.151-4.732-5.233Z" style="fill: #003a5f;"/>
        <path d="M147.484,14.746c-.285-.326-.647-.555-1.087-.682-.228-.043-.576-.075-1.045-.096-.469-.022-1.159-.039-2.068-.054-.043,1.421-.064,3.148-.064,5.181v2.878c0,.909.043,1.559.128,1.95.085.392.281.69.586.896.305.205.842.373,1.61.501v.682c-.54,0-.974-.008-1.301-.022l-2.238-.021-2.238.021c-.327.014-.76.022-1.3.022v-.682c.767-.128,1.311-.295,1.631-.501.32-.206.515-.504.586-.896.071-.391.106-1.041.106-1.95v-2.878c0-2.047-.021-3.774-.064-5.181-.91.015-1.599.032-2.068.054-.469.021-.817.053-1.044.096-.455.128-.821.356-1.098.682-.277.327-.508.796-.693,1.407l-.64-.043c.057-1.137.171-2.409.341-3.816l.64.043.64.64c1.222.043,2.956.064,5.201.064,2.274,0,4.008-.022,5.202-.064l.64-.64.66-.043c.171,1.407.284,2.679.341,3.816l-.661.043c-.185-.611-.419-1.08-.703-1.407Z" style="fill: #003a5f;"/>
        <path d="M71.546,15.087s-.089,7.606-.011,8.559c.039.479.242.839.533,1.087.291.249.778.444,1.46.586v.682c-.426,0-.775-.007-1.045-.021l-1.961-.021-1.577.021c-.213.014-.498.021-.853.021v-.682c.554-.128.977-.295,1.268-.501.291-.206.592-.505.682-.96.152-.77.267-7.323.267-7.877,0-.653-.121-1.165-.362-1.535s-.704-.675-1.386-.917v-.682c2.729,0,4.363.035,4.903.106.086.469.202.934.352,1.396.149.462.352,1.012.607,1.652.796,2.089,1.67,4.285,2.622,6.587.568-1.364,1.45-3.609,2.643-6.736.199-.54.373-1.037.522-1.492.149-.455.273-.917.373-1.386.796-.057,2.48-.099,5.052-.128v.682c-.526.157-.927.327-1.204.512-.277.185-.466.43-.565.735-.1.306-.15.722-.15,1.247,0,.64.097,6.435.328,7.898.063.397.355.665.639.863.284.199.725.377,1.322.533v.682c-.484,0-.86-.007-1.13-.021l-2.281-.021-2.047.021c-.341.014-.81.021-1.407.021v-.682c.597-.128,1.044-.263,1.343-.405.299-.142.504-.33.618-.565.114-.234.17-.557.17-.97l-.242-8.293c-.384.938-.725,1.769-1.023,2.494-.583,1.421-1.166,2.843-1.748,4.263-.583,1.421-1.159,2.843-1.727,4.263l-.511.064c-.981-2.516-2.473-6.211-4.477-11.085Z" style="fill: #003a5f;"/>
      </g>
    </g>
    <g id="Chevron">
      <polygon points="22.705 72.341 0 50.001 0 0 22.705 22.238 22.705 72.341" style="fill: #003a5f;"/>
      <polygon points="22.705 72.341 45.395 50.001 45.395 0 22.705 22.238 22.705 72.341" style="fill: #0077ae;"/>
    </g>
  </g>
</svg>